PathFileType	4	(x/y/z)	S02_SL_Cal_T01
DataRate	CameraRate	NumFrames	NumMarkers	Units	OrigDataRate	OrigDataStartFrame	OrigNumFrames
240	240	7	51	mm	240	601	2400
Frame#	Time	Sternum			R.Acromium			L.Acromium			Top.Head			R.ASIS			L.ASIS			R.PSIS			L.PSIS			R.Great.Tro			L.Great.Tro			R.Iliac.Crest			L.Iliac.Crest			V.Sacral			R.Thigh.Upper.Post			R.Thigh.Lower.Ant			R.Thigh.Lower.Post			R.Thigh.Upper.Ant			R.Knee.Lat			R.Knee.Med			R.Shank.Upper.Post			R.Shank.Lower.Ant			R.Shank.Lower.Post			R.Shank.Upper.Ant			R.Ankle.Lat			R.Ankle.Med			R.Heel.Upper			R.Heel.Med			R.Heel.Lat			R.Toe.Lat			R.Toe.Med			R.Toe.Tip			L.Thigh.Upper.Post			L.Thigh.Lower.Ant			L.Thigh.Lower.Post			L.Thigh.Upper.Ant			L.Knee.Lat			L.Knee.Med			L.Shank.Upper.Post			L.Shank.Lower.Ant			L.Shank.Lower.Post			L.Shank.Upper.Ant			L.Ankle.Lat			L.Ankle.Med			L.Heel.Upper			L.Heel.Med			L.Heel.Lat			L.Toe.Lat			L.Toe.Med			L.Toe.Tip			Cervical.Spine			Back			
		X1	Y1	Z1	X2	Y2	Z2	X3	Y3	Z3	X4	Y4	Z4	X5	Y5	Z5	X6	Y6	Z6	X7	Y7	Z7	X8	Y8	Z8	X9	Y9	Z9	X10	Y10	Z10	X11	Y11	Z11	X12	Y12	Z12	X13	Y13	Z13	X14	Y14	Z14	X15	Y15	Z15	X16	Y16	Z16	X17	Y17	Z17	X18	Y18	Z18	X19	Y19	Z19	X20	Y20	Z20	X21	Y21	Z21	X22	Y22	Z22	X23	Y23	Z23	X24	Y24	Z24	X25	Y25	Z25	X26	Y26	Z26	X27	Y27	Z27	X28	Y28	Z28	X29	Y29	Z29	X30	Y30	Z30	X31	Y31	Z31	X32	Y32	Z32	X33	Y33	Z33	X34	Y34	Z34	X35	Y35	Z35	X36	Y36	Z36	X37	Y37	Z37	X38	Y38	Z38	X39	Y39	Z39	X40	Y40	Z40	X41	Y41	Z41	X42	Y42	Z42	X43	Y43	Z43	X44	Y44	Z44	X45	Y45	Z45	X46	Y46	Z46	X47	Y47	Z47	X48	Y48	Z48	X49	Y49	Z49	X50	Y50	Z50	X51	Y51	Z51	

601	2.5	632.71	1127.2	308.28	502.73	1356.4	444.42	504.26	1350.1	147.53	539.94	1643.6	294.79	597.6	940.03	416.3	616.67	926.34	203.09	386.3	970.51	343.34	387.91	969.24	268.38	511.51	834.6	506.14	491.79	840.85	109.69	493.83	989.55	465.61	500.24	974.66	131.5	361.78	921.42	300.56	512.88	631.03	503.1	559.78	544.9	472.91	488.42	544.2	490.33	579.26	632	481.92	499.14	464.28	478.61	487.59	438.45	336.61	418.77	257.4	478	495.41	178.88	469.19	429.19	184.73	473.74	491.6	248.37	481.53	452.12	89.539	468.48	467.47	97.107	385.45	397.78	71.949	408.92	415.14	40.493	383.38	397.45	41.042	445.07	552.72	41.622	508.15	598.38	35.871	405.51	638.18	65.294	467.08	448.86	624.74	120.59	515.81	537.17	119.21	438.14	534.99	134.12	519.13	631.8	106.09	490.78	460.38	123.37	482.69	444.11	263.25	410.12	288.85	112.95	487.57	207.84	114.85	415.7	215.16	123.24	474.91	283.25	105.8	457.85	99.618	120.57	477.17	92.459	201.37	403.94	65.18	159.21	417.51	39.648	191.34	407.24	37.723	130.5	567.75	37.401	79.739	602.75	47.225	184.76	655.68	66.296	131.29	425.24	1406	294.2	365.69	1153.6	303.25
602	2.5042	632.64	1127.2	308.3	502.66	1356.4	444.43	504.2	1350.1	147.55	539.86	1643.6	294.79	597.53	940.02	416.32	616.6	926.34	203.11	386.22	970.51	343.35	387.84	969.25	268.39	511.44	834.59	506.15	491.75	840.85	109.7	493.57	989.58	465.62	500.18	974.68	131.51	361.71	921.43	300.56	512.87	631.02	503.12	559.76	544.89	472.91	488.41	544.2	490.35	579.25	632	481.91	499.15	464.29	478.63	487.51	438.44	336.63	418.79	257.39	478.06	495.43	178.88	469.19	429.22	184.73	473.79	491.65	248.37	481.55	452.12	89.532	468.48	467.45	97.109	385.46	397.76	71.943	408.93	415.13	40.491	383.39	397.44	41.029	445.08	552.71	41.636	508.15	598.37	35.882	405.52	638.16	65.319	467.06	448.86	624.74	120.57	515.83	537.17	119.21	438.16	534.98	134.11	519.13	631.8	106.09	490.82	460.38	123.36	482.67	444.11	263.24	410.16	288.86	112.89	487.6	207.83	114.85	415.73	215.16	123.2	474.95	283.24	105.78	457.84	99.619	120.56	477.16	92.461	201.36	403.93	65.171	159.21	417.51	39.647	191.34	407.24	37.716	130.5	567.75	37.405	79.742	602.74	47.229	184.76	655.68	66.321	131.29	425.18	1406	294.21	365.63	1153.6	303.26
603	2.5083	632.56	1127.2	308.32	502.6	1356.4	444.45	504.14	1350.1	147.56	539.77	1643.6	294.8	597.44	940.02	416.34	616.54	926.34	203.14	386.15	970.52	343.35	387.78	969.26	268.39	511.37	834.58	506.16	491.71	840.86	109.72	493.33	989.6	465.62	500.13	974.7	131.52	361.63	921.45	300.56	512.86	631.01	503.13	559.75	544.89	472.9	488.4	544.19	490.38	579.24	631.99	481.91	499.17	464.29	478.65	487.43	438.43	336.66	418.82	257.38	478.11	495.46	178.88	469.19	429.25	184.72	473.84	491.7	248.37	481.57	452.11	89.526	468.49	467.44	97.112	385.47	397.75	71.937	408.93	415.13	40.489	383.39	397.43	41.016	445.08	552.71	41.649	508.14	598.35	35.893	405.52	638.14	65.343	467.05	448.87	624.73	120.55	515.84	537.18	119.2	438.18	534.97	134.09	519.14	631.81	106.09	490.85	460.38	123.35	482.65	444.11	263.22	410.2	288.86	112.85	487.63	207.83	114.84	415.75	215.16	123.16	475	283.24	105.77	457.83	99.621	120.54	477.15	92.463	201.36	403.93	65.163	159.2	417.5	39.646	191.33	407.24	37.711	130.5	567.74	37.409	79.745	602.73	47.233	184.76	655.67	66.347	131.29	425.12	1406	294.22	365.57	1153.6	303.28
604	2.5125	632.48	1127.2	308.34	502.53	1356.4	444.46	504.09	1350.1	147.57	539.69	1643.6	294.81	597.36	940.02	416.36	616.48	926.34	203.16	386.07	970.53	343.35	387.72	969.27	268.39	511.3	834.57	506.18	491.67	840.86	109.73	493.12	989.61	465.63	500.07	974.71	131.53	361.56	921.46	300.56	512.86	631	503.15	559.73	544.89	472.9	488.4	544.19	490.4	579.24	631.99	481.9	499.18	464.3	478.68	487.35	438.43	336.69	418.84	257.36	478.17	495.48	178.88	469.19	429.28	184.71	473.89	491.76	248.37	481.59	452.11	89.52	468.5	467.42	97.115	385.48	397.74	71.932	408.94	415.12	40.488	383.4	397.42	41.003	445.09	552.71	41.662	508.14	598.33	35.904	405.52	638.12	65.368	467.04	448.88	624.73	120.53	515.86	537.18	119.2	438.21	534.96	134.07	519.15	631.81	106.09	490.89	460.38	123.34	482.63	444.11	263.21	410.24	288.86	112.8	487.66	207.83	114.84	415.78	215.16	123.12	475.04	283.23	105.75	457.83	99.622	120.53	477.14	92.465	201.35	403.92	65.156	159.2	417.5	39.646	191.33	407.23	37.705	130.49	567.74	37.412	79.747	602.72	47.237	184.76	655.66	66.372	131.29	425.06	1406	294.23	365.51	1153.6	303.29
605	2.5167	632.41	1127.2	308.36	502.47	1356.4	444.48	504.03	1350.1	147.59	539.6	1643.7	294.81	597.28	940.02	416.39	616.42	926.35	203.18	385.99	970.54	343.35	387.66	969.28	268.4	511.23	834.56	506.19	491.63	840.86	109.75	492.92	989.63	465.64	500.02	974.73	131.54	361.49	921.48	300.56	512.85	630.99	503.16	559.72	544.88	472.9	488.39	544.19	490.42	579.23	631.99	481.89	499.2	464.3	478.7	487.28	438.42	336.71	418.87	257.35	478.22	495.51	178.87	469.19	429.3	184.71	473.94	491.81	248.36	481.61	452.1	89.514	468.51	467.41	97.117	385.48	397.72	71.926	408.95	415.11	40.486	383.41	397.41	40.991	445.1	552.7	41.675	508.13	598.32	35.914	405.53	638.1	65.392	467.02	448.89	624.72	120.51	515.88	537.18	119.19	438.24	534.95	134.05	519.17	631.82	106.09	490.92	460.38	123.33	482.62	444.11	263.2	410.28	288.87	112.75	487.69	207.82	114.83	415.81	215.16	123.08	475.09	283.22	105.74	457.82	99.624	120.51	477.13	92.467	201.35	403.91	65.148	159.2	417.5	39.645	191.32	407.23	37.7	130.49	567.74	37.416	79.75	602.71	47.241	184.76	655.66	66.397	131.29	425	1406	294.24	365.45	1153.6	303.31
606	2.5208	632.33	1127.2	308.38	502.4	1356.4	444.49	503.97	1350.1	147.6	539.52	1643.7	294.82	597.2	940.02	416.41	616.36	926.35	203.21	385.92	970.55	343.36	387.6	969.29	268.4	511.16	834.55	506.2	491.58	840.86	109.77	492.75	989.64	465.65	499.96	974.74	131.55	361.41	921.49	300.57	512.85	630.98	503.18	559.71	544.88	472.89	488.39	544.18	490.45	579.23	631.99	481.89	499.22	464.31	478.72	487.21	438.42	336.74	418.9	257.34	478.27	495.54	178.87	469.19	429.33	184.7	473.99	491.86	248.36	481.63	452.1	89.509	468.52	467.39	97.12	385.49	397.71	71.92	408.96	415.11	40.484	383.41	397.4	40.979	445.1	552.7	41.688	508.13	598.3	35.925	405.53	638.09	65.416	467.01	448.9	624.72	120.48	515.91	537.19	119.19	438.27	534.94	134.04	519.18	631.82	106.09	490.96	460.38	123.32	482.6	444.11	263.18	410.32	288.88	112.7	487.72	207.82	114.83	415.84	215.16	123.05	475.13	283.22	105.72	457.81	99.625	120.5	477.12	92.469	201.34	403.91	65.142	159.19	417.5	39.645	191.32	407.23	37.695	130.49	567.74	37.419	79.753	602.7	47.246	184.76	655.66	66.422	131.29	424.95	1406	294.25	365.39	1153.6	303.33
607	2.525	632.26	1127.2	308.4	502.34	1356.4	444.5	503.91	1350.1	147.61	539.43	1643.7	294.83	597.12	940.03	416.43	616.3	926.36	203.23	385.84	970.55	343.36	387.53	969.3	268.41	511.1	834.54	506.22	491.54	840.87	109.78	492.59	989.66	465.66	499.91	974.76	131.56	361.34	921.51	300.57	512.85	630.97	503.19	559.71	544.88	472.89	488.39	544.18	490.47	579.23	631.99	481.88	499.24	464.31	478.74	487.14	438.41	336.76	418.93	257.33	478.32	495.58	178.87	469.19	429.36	184.69	474.03	491.92	248.36	481.64	452.09	89.503	468.53	467.38	97.122	385.5	397.7	71.914	408.97	415.1	40.483	383.42	397.4	40.967	445.11	552.7	41.7	508.12	598.29	35.935	405.53	638.07	65.439	467	448.92	624.72	120.46	515.93	537.19	119.19	438.31	534.93	134.02	519.2	631.82	106.09	491	460.37	123.32	482.59	444.11	263.17	410.36	288.88	112.66	487.75	207.81	114.83	415.86	215.16	123.01	475.18	283.21	105.71	457.81	99.626	120.49	477.11	92.471	201.34	403.9	65.136	159.19	417.49	39.645	191.31	407.23	37.69	130.48	567.73	37.423	79.755	602.69	47.25	184.76	655.65	66.445	131.3	424.89	1406	294.27	365.33	1153.6	303.34
